<svg xmlns="http://www.w3.org/2000/svg" xmlns:xlink="http://www.w3.org/1999/xlink" width="512" height="512" viewBox="0 0 512 512">
  <defs>
    <clipPath id="clip-path">
      <rect id="Rectangle_23496" data-name="Rectangle 23496" width="512" height="512" transform="translate(5058 6353)" fill="#fff" stroke="#707070" stroke-width="1"/>
    </clipPath>
    <clipPath id="clip-path-2">
      <rect id="Rectangle_34" data-name="Rectangle 34" width="243.221" height="244.53" fill="none"/>
    </clipPath>
    <clipPath id="clip-path-3">
      <rect id="Rectangle_35" data-name="Rectangle 35" width="245.389" height="239.382" fill="none"/>
    </clipPath>
    <clipPath id="clip-path-4">
      <rect id="Rectangle_36" data-name="Rectangle 36" width="236.492" height="278.507" fill="none"/>
    </clipPath>
    <clipPath id="clip-path-5">
      <rect id="Rectangle_37" data-name="Rectangle 37" width="248.319" height="265.048" fill="none"/>
    </clipPath>
    <clipPath id="clip-path-6">
      <rect id="Rectangle_38" data-name="Rectangle 38" width="244.651" height="226.095" fill="none"/>
    </clipPath>
    <clipPath id="clip-path-7">
      <rect id="Rectangle_39" data-name="Rectangle 39" width="273.964" height="271.935" fill="none"/>
    </clipPath>
    <clipPath id="clip-path-8">
      <rect id="Rectangle_40" data-name="Rectangle 40" width="19.679" height="43.327" fill="none"/>
    </clipPath>
  </defs>
  <g id="Lemolite_512_512" data-name="Lemolite 512*512" transform="translate(-5058 -6353)" clip-path="url(#clip-path)">
    <g id="Lemolite_white" data-name="Lemolite white" transform="translate(4938.005 6278.783)" style="isolation: isolate">
      <g id="Group_5236" data-name="Group 5236" transform="translate(248.278 276.199)" style="mix-blend-mode: multiply;isolation: isolate">
        <g id="Group_5235" data-name="Group 5235">
          <g id="Group_5234" data-name="Group 5234" clip-path="url(#clip-path-2)">
            <path id="Path_7777" data-name="Path 7777" d="M656.151,417.2c-22.525,21.948-54.132,32.946-89,30.965-33.071-1.877-64.1-15.337-85.141-36.927-20.712-21.253-29.667-48.086-25.9-77.6,3.537-27.738,18.46-55.656,42.017-78.611,49.794-48.522,131.326-71.512,173.337-28.4,41.85,42.946,33.839,142.685-15.306,190.574M502.945,259.974c-47.162,45.959-53.886,107.543-15.987,146.434,39.168,40.2,117.785,51.231,164.369,5.837,21.461-20.916,36.254-55.156,39.566-91.594,3.391-37.305-5.5-69.82-24.386-89.2C648.333,212.8,620.19,206.495,587.263,213.7c-29.745,6.509-61.265,23.808-84.318,46.271" transform="translate(-455.265 -203.86)" fill="#2ec4f3"/>
          </g>
        </g>
      </g>
      <g id="Group_5239" data-name="Group 5239" transform="translate(257.817 272.335)" style="mix-blend-mode: multiply;isolation: isolate">
        <g id="Group_5238" data-name="Group 5238">
          <g id="Group_5237" data-name="Group 5237" clip-path="url(#clip-path-3)">
            <path id="Path_7778" data-name="Path 7778" d="M678.1,403.656C633.216,447.4,540,454.736,493.239,416.24c-18.807-15.482-30.07-38.562-32.569-66.742-3.325-37.492,9.952-78.812,34.65-107.832,20.714-24.334,47.237-38.043,76.717-39.654,27.912-1.523,56.25,8.313,79.8,27.7,29.678,24.433,50.1,61.924,53.282,97.844,2.363,26.655-4.9,50.752-21.009,69.679-1.888,2.219-3.9,4.361-6.011,6.42M508.286,237.9q-3.973,3.874-7.7,8.246c-23.541,27.661-36.2,67.029-33.03,102.741,2.336,26.293,12.734,47.737,30.078,62.017,21.233,17.478,55.654,25.935,92.081,22.618,37.5-3.414,69.978-18.267,89.131-40.766,14.879-17.482,21.583-39.818,19.385-64.588-3.027-34.139-22.486-69.82-50.787-93.118-44.535-36.666-100.308-35.007-139.156,2.849" transform="translate(-460.166 -201.858)" fill="#bfd634"/>
          </g>
        </g>
      </g>
      <g id="Group_5242" data-name="Group 5242" transform="translate(263.183 249.355)" style="mix-blend-mode: multiply;isolation: isolate">
        <g id="Group_5241" data-name="Group 5241">
          <g id="Group_5240" data-name="Group 5240" clip-path="url(#clip-path-4)">
            <path id="Path_7779" data-name="Path 7779" d="M643.271,439.515c-18.927,18.444-41.479,29.772-65.829,29.036-26.077-.793-52.533-15.163-74.489-40.47-28.517-32.855-43.583-77.04-39.32-115.309,3.679-33.018,21.878-64.389,51.255-88.348,27.894-22.742,61.791-35.243,93.01-34.3,26.115.79,48.509,11.1,64.751,29.822,20.771,23.931,30.129,60.558,25.681,100.495-4.952,44.465-25.614,90.376-55.059,119.07m-65.622,22.123c27.142.824,54.186-15.1,76.147-44.847,19.795-26.813,33.874-63.115,37.661-97.112,4.237-38.022-4.522-72.721-24.027-95.2-14.946-17.223-35.6-26.712-59.74-27.444-58.436-1.775-129.521,47.674-137.185,116.5-4.058,36.413,10.376,78.568,37.667,110.015,20.68,23.83,45.353,37.356,69.477,38.086" transform="translate(-462.921 -190.077)" fill="#2ec4f3"/>
          </g>
        </g>
      </g>
      <g id="Group_5245" data-name="Group 5245" transform="translate(245.905 268.945)" style="mix-blend-mode: multiply;isolation: isolate">
        <g id="Group_5244" data-name="Group 5244">
          <g id="Group_5243" data-name="Group 5243" clip-path="url(#clip-path-5)">
            <path id="Path_7780" data-name="Path 7780" d="M659.529,426.385c-19.04,18.556-44.085,31.233-72.432,36.38-34.519,6.266-68.762.23-93.951-16.564a85.408,85.408,0,0,1-37.463-56.763c-6.018-32.707,4.726-71.4,29.476-106.157C529,221.726,609.65,178.291,659.844,211.754c19.81,13.205,33.9,37.765,39.676,69.154,8.241,44.79-1.755,95.25-25.473,128.551a124.438,124.438,0,0,1-14.517,16.927M515.809,258.256a214.956,214.956,0,0,0-25.017,29.034c-23.674,33.241-33.991,70.018-28.307,100.9a78.636,78.636,0,0,0,34.5,52.262c46.895,31.262,130.174,22.943,171.433-35C691.1,373.594,700.64,325.2,692.722,282.16c-5.436-29.536-18.475-52.495-36.715-64.654-21.723-14.483-51.882-13.912-84.918,1.607-19.233,9.035-38.528,22.821-55.28,39.144" transform="translate(-454.048 -200.135)" fill="#bfd634"/>
          </g>
        </g>
      </g>
      <g id="Group_5248" data-name="Group 5248" transform="translate(238.795 281.532)" style="mix-blend-mode: multiply;isolation: isolate">
        <g id="Group_5247" data-name="Group 5247">
          <g id="Group_5246" data-name="Group 5246" clip-path="url(#clip-path-6)">
            <path id="Path_7781" data-name="Path 7781" d="M661.041,406.107c-15.809,15.41-35.847,24.4-58.8,26.233-27.26,2.178-56.55-6.294-82.482-23.864-34.987-23.7-61.647-61.94-67.918-97.418-3.973-22.464.281-43.14,12.3-59.793,34.46-47.739,131.644-59.943,185.693-23.325,22.643,15.34,38,40.131,43.251,69.814,5.917,33.457-1.757,68.957-20.53,94.96a102.1,102.1,0,0,1-11.519,13.394m-191.293-150.8c-11.057,15.316-14.792,33.667-11.1,54.542,5.961,33.728,31.472,70.194,64.986,92.9,46.618,31.581,100.087,29.949,133.089-2.207a90.654,90.654,0,0,0,10.231-11.881c17.7-24.519,24.924-58.054,19.326-89.709-4.921-27.823-19.239-51.015-40.32-65.3-23.558-15.957-58.841-23.033-94.381-18.924-36.428,4.211-66.255,19-81.832,40.576" transform="translate(-450.395 -206.58)" fill="#2ec4f3"/>
          </g>
        </g>
      </g>
      <g id="Group_5251" data-name="Group 5251" transform="translate(239.788 257.012)" style="mix-blend-mode: multiply;isolation: isolate">
        <g id="Group_5250" data-name="Group 5250">
          <g id="Group_5249" data-name="Group 5249" clip-path="url(#clip-path-7)">
            <path id="Path_7782" data-name="Path 7782" d="M691.652,432.589c-22.318,21.747-53.734,33.571-88.772,33.351-34.688-.218-72.339-12.531-100.717-32.93-32.193-23.142-50.386-54.634-51.223-88.673-.859-34.73,15.895-72.211,45.962-102.834,29.392-29.928,66.591-47.7,99.488-47.491,32.633.206,64.468,17.5,89.639,48.682,23.766,29.452,37.907,67.05,38.8,103.157.834,33.817-10.051,63.227-31.48,85.052q-.839.853-1.7,1.687m-233.8-88.422c.785,31.82,17.955,61.381,48.348,83.229,27.26,19.6,63.419,31.421,96.727,31.632,34.044.214,64.348-11.5,85.49-32.97,20.088-20.458,30.288-48.134,29.5-80.037-.854-34.619-14.435-70.7-37.266-98.988-23.844-29.544-53.783-45.918-84.3-46.111-31.062-.195-66.373,16.792-94.512,45.419-28.763,29.3-44.8,64.954-43.986,97.825" transform="translate(-450.908 -194.009)" fill="#bfd634"/>
          </g>
        </g>
      </g>
      <path id="Path_7783" data-name="Path 7783" d="M545.1,127.412A69.361,69.361,0,0,0,507.879,146.5a76.811,76.811,0,0,0-18.617,29.061c-9.657,26.938-3.676,56.969,15.211,76.124A69.4,69.4,0,0,0,541.7,232.595a76.769,76.769,0,0,0,18.615-29.061c9.659-26.938,3.675-56.967-15.209-76.122" transform="translate(-179.084)" fill="#bfd633"/>
      <g id="Group_5254" data-name="Group 5254" transform="translate(305.926 208.34)" style="mix-blend-mode: multiply;isolation: isolate">
        <g id="Group_5253" data-name="Group 5253">
          <g id="Group_5252" data-name="Group 5252" clip-path="url(#clip-path-8)">
            <path id="Path_7784" data-name="Path 7784" d="M484.858,168.974c1.428,16.351,8.112,31.807,19.471,43.33l.071-.017c.017-.012.041-.022.064-.037.921-16.238-6.538-32.374-19.605-43.275" transform="translate(-484.859 -168.974)" fill="#2ec4f3"/>
          </g>
        </g>
      </g>
      <path id="Path_7785" data-name="Path 7785" d="M506.809,169.307c-17.393-9.628-38.54-9.545-54.475.487-1.062,18.67,8.944,37.208,25.829,47.805,15.087,9.473,33.516,11.228,48.986,5.188-13.18-14.421-20.23-33.614-20.34-53.48" transform="translate(-209.818 32.944)" fill="#2ec4f3"/>
    </g>
  </g>
</svg>
