<svg xmlns="http://www.w3.org/2000/svg" xmlns:xlink="http://www.w3.org/1999/xlink" width="212.185" height="66.358" viewBox="0 0 212.185 66.358">
  <defs>
    <clipPath id="clip-path">
      <rect id="Rectangle_34" data-name="Rectangle 34" width="35.438" height="35.629" fill="none"/>
    </clipPath>
    <clipPath id="clip-path-2">
      <rect id="Rectangle_35" data-name="Rectangle 35" width="35.754" height="34.879" fill="none"/>
    </clipPath>
    <clipPath id="clip-path-3">
      <rect id="Rectangle_36" data-name="Rectangle 36" width="34.458" height="40.58" fill="none"/>
    </clipPath>
    <clipPath id="clip-path-4">
      <rect id="Rectangle_37" data-name="Rectangle 37" width="36.181" height="38.619" fill="none"/>
    </clipPath>
    <clipPath id="clip-path-5">
      <rect id="Rectangle_38" data-name="Rectangle 38" width="35.647" height="32.943" fill="none"/>
    </clipPath>
    <clipPath id="clip-path-6">
      <rect id="Rectangle_39" data-name="Rectangle 39" width="39.918" height="39.622" fill="none"/>
    </clipPath>
    <clipPath id="clip-path-7">
      <rect id="Rectangle_40" data-name="Rectangle 40" width="2.867" height="6.313" fill="none"/>
    </clipPath>
  </defs>
  <g id="Lemolite_black" data-name="Lemolite black" transform="translate(-154.987 -127.412)" style="isolation: isolate">
    <path id="Path_7770" data-name="Path 7770" d="M155.277,244.741a.952.952,0,0,1-.29-.7V217.111a.938.938,0,0,1,.29-.723.992.992,0,0,1,.7-.268h3.84a.925.925,0,0,1,.992.991v23H173.9a.992.992,0,0,1,1.033,1.033v2.891a.935.935,0,0,1-.29.723,1.044,1.044,0,0,1-.743.268H155.978a.952.952,0,0,1-.7-.289" transform="translate(0 -63.545)"/>
    <path id="Path_7771" data-name="Path 7771" d="M239.685,244.741a.953.953,0,0,1-.29-.7V217.152a1.049,1.049,0,0,1,.268-.743.94.94,0,0,1,.723-.289h18.172a.99.99,0,0,1,1.032,1.032v2.726a.94.94,0,0,1-.289.723,1.05,1.05,0,0,1-.743.268H244.971v7.31h12.68a1.055,1.055,0,0,1,.743.269.942.942,0,0,1,.289.723v2.561a.94.94,0,0,1-.289.723,1.05,1.05,0,0,1-.743.269h-12.68v7.558h13.918a.99.99,0,0,1,1.032,1.033v2.726a.939.939,0,0,1-.289.723,1.047,1.047,0,0,1-.743.268h-18.5a.954.954,0,0,1-.7-.289" transform="translate(-60.455 -63.545)"/>
    <path id="Path_7772" data-name="Path 7772" d="M330.2,244.761a.936.936,0,0,1-.289-.723V217.152a.99.99,0,0,1,1.033-1.032h3.263a1.275,1.275,0,0,1,1.238.785l7.971,14.868,8.053-14.868a1.327,1.327,0,0,1,1.239-.785h3.221a.989.989,0,0,1,1.033,1.032v26.887a.94.94,0,0,1-.289.723,1.048,1.048,0,0,1-.744.268h-3.469a.988.988,0,0,1-.992-.991V226.156l-5.782,11.027a1.6,1.6,0,0,1-1.4.909h-1.693a1.6,1.6,0,0,1-1.4-.909l-5.782-11.027v17.883a.992.992,0,0,1-.268.7.939.939,0,0,1-.722.289h-3.469a1.044,1.044,0,0,1-.744-.268" transform="translate(-125.3 -63.545)"/>
    <path id="Path_7773" data-name="Path 7773" d="M614.858,244.741a.953.953,0,0,1-.29-.7V217.111a.938.938,0,0,1,.29-.723.993.993,0,0,1,.7-.268h3.84a.925.925,0,0,1,.992.991v23h13.091a.991.991,0,0,1,1.033,1.033v2.891a.937.937,0,0,1-.29.723,1.046,1.046,0,0,1-.744.268H615.56a.953.953,0,0,1-.7-.289" transform="translate(-329.194 -63.545)"/>
    <path id="Path_7774" data-name="Path 7774" d="M699.267,244.741a.953.953,0,0,1-.29-.7V217.111a.939.939,0,0,1,.29-.723.994.994,0,0,1,.7-.268h3.882a.925.925,0,0,1,.992.991v26.927a1,1,0,0,1-.268.7.94.94,0,0,1-.723.289h-3.882a.954.954,0,0,1-.7-.289" transform="translate(-389.653 -63.545)"/>
    <path id="Path_7775" data-name="Path 7775" d="M743.408,244.741a.953.953,0,0,1-.289-.7V221.2h-7.64a.986.986,0,0,1-.992-.992v-3.056a1.049,1.049,0,0,1,.269-.743.938.938,0,0,1,.723-.289h21.062a.99.99,0,0,1,1.032,1.032v3.056a.956.956,0,0,1-.289.7,1.007,1.007,0,0,1-.743.289h-7.6v22.839a.957.957,0,0,1-.29.7,1,1,0,0,1-.743.289h-3.8a.956.956,0,0,1-.7-.289" transform="translate(-415.099 -63.545)"/>
    <path id="Path_7776" data-name="Path 7776" d="M830.827,244.741a.954.954,0,0,1-.29-.7V217.152a1.049,1.049,0,0,1,.268-.743.941.941,0,0,1,.723-.289H849.7a.99.99,0,0,1,1.032,1.032v2.726a.939.939,0,0,1-.289.723,1.049,1.049,0,0,1-.743.268H836.113v7.31h12.679a1.054,1.054,0,0,1,.744.269.942.942,0,0,1,.289.723v2.561a.94.94,0,0,1-.289.723,1.049,1.049,0,0,1-.744.269H836.113v7.558h13.918a.99.99,0,0,1,1.032,1.033v2.726a.941.941,0,0,1-.289.723,1.048,1.048,0,0,1-.744.268h-18.5a.953.953,0,0,1-.7-.289" transform="translate(-483.892 -63.545)"/>
    <g id="Group_5236" data-name="Group 5236" transform="translate(240.176 149.091)" style="mix-blend-mode: multiply;isolation: isolate">
      <g id="Group_5235" data-name="Group 5235">
        <g id="Group_5234" data-name="Group 5234" clip-path="url(#clip-path)">
          <path id="Path_7777" data-name="Path 7777" d="M484.536,234.944a16.894,16.894,0,0,1-12.968,4.512,18.9,18.9,0,0,1-12.405-5.38,13.29,13.29,0,0,1-3.774-11.307,19.889,19.889,0,0,1,6.122-11.454c7.255-7.07,19.135-10.42,25.256-4.138,6.1,6.257,4.93,20.79-2.23,27.767m-22.323-22.908c-6.872,6.7-7.851,15.67-2.329,21.336,5.707,5.857,17.162,7.465,23.949.851,3.127-3.048,5.282-8.036,5.765-13.346.494-5.436-.8-10.173-3.553-13-2.648-2.717-6.749-3.635-11.546-2.585a26.577,26.577,0,0,0-12.285,6.742" transform="translate(-455.266 -203.86)" fill="#2ec4f3"/>
        </g>
      </g>
    </g>
    <g id="Group_5239" data-name="Group 5239" transform="translate(241.566 148.528)" style="mix-blend-mode: multiply;isolation: isolate">
      <g id="Group_5238" data-name="Group 5238">
        <g id="Group_5237" data-name="Group 5237" clip-path="url(#clip-path-2)">
          <path id="Path_7778" data-name="Path 7778" d="M491.919,231.261c-6.539,6.374-20.122,7.442-26.935,1.834a13.774,13.774,0,0,1-4.745-9.725,22.085,22.085,0,0,1,5.049-15.712,15.615,15.615,0,0,1,11.178-5.778,16.927,16.927,0,0,1,11.627,4.036,21.741,21.741,0,0,1,7.763,14.256,13.455,13.455,0,0,1-3.061,10.153c-.275.323-.568.635-.876.935m-24.742-24.151q-.579.564-1.122,1.2a21.043,21.043,0,0,0-4.813,14.97,12.8,12.8,0,0,0,4.382,9.036c3.094,2.547,8.109,3.779,13.417,3.3,5.464-.5,10.2-2.662,12.987-5.94a12.467,12.467,0,0,0,2.824-9.411,20.7,20.7,0,0,0-7.4-13.568c-6.489-5.342-14.615-5.1-20.276.415" transform="translate(-460.165 -201.858)" fill="#bfd634"/>
        </g>
      </g>
    </g>
    <g id="Group_5242" data-name="Group 5242" transform="translate(242.348 145.18)" style="mix-blend-mode: multiply;isolation: isolate">
      <g id="Group_5241" data-name="Group 5241">
        <g id="Group_5240" data-name="Group 5240" clip-path="url(#clip-path-3)">
          <path id="Path_7779" data-name="Path 7779" d="M489.2,226.421c-2.758,2.687-6.044,4.338-9.592,4.231-3.8-.115-7.654-2.209-10.853-5.9-4.155-4.787-6.35-11.225-5.729-16.8a19.631,19.631,0,0,1,7.468-12.873,21.027,21.027,0,0,1,13.552-5,12.646,12.646,0,0,1,9.435,4.345c3.026,3.487,4.39,8.824,3.742,14.643-.722,6.479-3.732,13.168-8.022,17.349m-9.561,3.223c3.955.12,7.9-2.2,11.095-6.534a30.55,30.55,0,0,0,5.487-14.15c.617-5.54-.659-10.6-3.5-13.871a11.665,11.665,0,0,0-8.7-4c-8.514-.259-18.872,6.946-19.988,16.974-.591,5.306,1.512,11.448,5.488,16.03,3.013,3.472,6.608,5.443,10.123,5.549" transform="translate(-462.92 -190.077)" fill="#2ec4f3"/>
        </g>
      </g>
    </g>
    <g id="Group_5245" data-name="Group 5245" transform="translate(239.831 148.034)" style="mix-blend-mode: multiply;isolation: isolate">
      <g id="Group_5244" data-name="Group 5244">
        <g id="Group_5243" data-name="Group 5243" clip-path="url(#clip-path-4)">
          <path id="Path_7780" data-name="Path 7780" d="M483.986,233.1a20.18,20.18,0,0,1-10.554,5.3,18.8,18.8,0,0,1-13.689-2.414,12.444,12.444,0,0,1-5.459-8.271c-.877-4.766.689-10.4,4.295-15.467,6.387-8.969,18.139-15.3,25.452-10.422,2.886,1.924,4.939,5.5,5.781,10.076,1.2,6.526-.256,13.878-3.712,18.73a18.133,18.133,0,0,1-2.115,2.466m-20.941-24.5a31.32,31.32,0,0,0-3.645,4.23c-3.449,4.843-4.953,10.2-4.124,14.7a11.458,11.458,0,0,0,5.026,7.615c6.833,4.555,18.967,3.343,24.979-5.1,3.306-4.642,4.7-11.693,3.542-17.964-.792-4.3-2.692-7.649-5.35-9.42-3.165-2.11-7.559-2.027-12.373.234a30.372,30.372,0,0,0-8.055,5.7" transform="translate(-454.047 -200.136)" fill="#bfd634"/>
        </g>
      </g>
    </g>
    <g id="Group_5248" data-name="Group 5248" transform="translate(238.795 149.868)" style="mix-blend-mode: multiply;isolation: isolate">
      <g id="Group_5247" data-name="Group 5247">
        <g id="Group_5246" data-name="Group 5246" clip-path="url(#clip-path-5)">
          <path id="Path_7781" data-name="Path 7781" d="M481.088,235.652a13.569,13.569,0,0,1-8.567,3.822A19.021,19.021,0,0,1,460.5,236c-5.1-3.454-8.982-9.025-9.9-14.194a11.2,11.2,0,0,1,1.793-8.712c5.021-6.956,19.181-8.734,27.056-3.4a15.263,15.263,0,0,1,6.3,10.172,18.531,18.531,0,0,1-2.991,13.836,14.873,14.873,0,0,1-1.678,1.952m-27.872-21.972a10.084,10.084,0,0,0-1.617,7.947c.869,4.914,4.586,10.228,9.469,13.536,6.792,4.6,14.583,4.364,19.392-.322a13.21,13.21,0,0,0,1.491-1.731,17.506,17.506,0,0,0,2.816-13.071,14.268,14.268,0,0,0-5.875-9.514c-3.432-2.325-8.573-3.356-13.752-2.757-5.308.614-9.654,2.768-11.923,5.912" transform="translate(-450.396 -206.58)" fill="#2ec4f3"/>
        </g>
      </g>
    </g>
    <g id="Group_5251" data-name="Group 5251" transform="translate(238.939 146.295)" style="mix-blend-mode: multiply;isolation: isolate">
      <g id="Group_5250" data-name="Group 5250">
        <g id="Group_5249" data-name="Group 5249" clip-path="url(#clip-path-6)">
          <path id="Path_7782" data-name="Path 7782" d="M485.985,228.771a18.111,18.111,0,0,1-12.935,4.859,26.37,26.37,0,0,1-14.675-4.8c-4.691-3.372-7.341-7.96-7.463-12.92-.125-5.06,2.316-10.521,6.7-14.983,4.283-4.361,9.7-6.95,14.5-6.92,4.755.03,9.393,2.549,13.061,7.093a25.482,25.482,0,0,1,5.653,15.03,16.624,16.624,0,0,1-4.587,12.392q-.122.124-.247.246m-34.066-12.883c.114,4.636,2.616,8.943,7.045,12.127a25.328,25.328,0,0,0,14.094,4.609,17.054,17.054,0,0,0,12.456-4.8,15.641,15.641,0,0,0,4.3-11.662,24.454,24.454,0,0,0-5.43-14.423c-3.474-4.3-7.836-6.69-12.283-6.719-4.526-.028-9.671,2.447-13.771,6.618-4.191,4.269-6.527,9.464-6.409,14.253" transform="translate(-450.908 -194.009)" fill="#bfd634"/>
        </g>
      </g>
    </g>
    <path id="Path_7783" data-name="Path 7783" d="M493.506,127.412a10.106,10.106,0,0,0-5.423,2.782,11.192,11.192,0,0,0-2.713,4.234,10.719,10.719,0,0,0,2.216,11.092,10.112,10.112,0,0,0,5.423-2.782,11.185,11.185,0,0,0,2.712-4.234,10.719,10.719,0,0,0-2.216-11.091" transform="translate(-236.174 0)" fill="#bfd633"/>
    <g id="Group_5254" data-name="Group 5254" transform="translate(248.576 139.203)" style="mix-blend-mode: multiply;isolation: isolate">
      <g id="Group_5253" data-name="Group 5253">
        <g id="Group_5252" data-name="Group 5252" clip-path="url(#clip-path-7)">
          <path id="Path_7784" data-name="Path 7784" d="M484.858,168.974a10.231,10.231,0,0,0,2.837,6.313l.01,0,.009-.005a7.742,7.742,0,0,0-2.857-6.305" transform="translate(-484.858 -168.974)" fill="#2ec4f3"/>
        </g>
      </g>
    </g>
    <path id="Path_7785" data-name="Path 7785" d="M460.205,163.215a7.863,7.863,0,0,0-7.937.071,7.84,7.84,0,0,0,3.763,6.965,8.04,8.04,0,0,0,7.137.756,11.622,11.622,0,0,1-2.964-7.792" transform="translate(-212.931 -24.899)" fill="#2ec4f3"/>
    <path id="Path_7786" data-name="Path 7786" d="M614,336.3v-.7h3.9v.7H616.31v6.418h-.725V336.3Z" transform="translate(-328.784 -149.125)"/>
    <path id="Path_7787" data-name="Path 7787" d="M633.984,335.6h4.077v.7h-3.366v2.23h3.337v.7h-3.337v2.8h3.337v.7h-4.048Z" transform="translate(-343.099 -149.125)"/>
    <path id="Path_7788" data-name="Path 7788" d="M661.093,336.471l-.56.43a3.063,3.063,0,0,0-1.116-.916,3.258,3.258,0,0,0-1.429-.312,3.159,3.159,0,0,0-1.576.409,2.929,2.929,0,0,0-1.125,1.1,3.039,3.039,0,0,0-.4,1.55,2.908,2.908,0,0,0,.892,2.171,3.092,3.092,0,0,0,2.252.871,3.166,3.166,0,0,0,2.5-1.17l.56.426a3.579,3.579,0,0,1-1.328,1.047,4.171,4.171,0,0,1-1.777.37,3.7,3.7,0,0,1-2.945-1.243,3.749,3.749,0,0,1-.9-2.534,3.524,3.524,0,0,1,1.094-2.629,3.779,3.779,0,0,1,2.745-1.066,4.03,4.03,0,0,1,1.8.394,3.488,3.488,0,0,1,1.315,1.105" transform="translate(-357.536 -148.674)"/>
    <path id="Path_7789" data-name="Path 7789" d="M686.258,335.6h.711v2.984h3.622V335.6h.711v7.115h-.711v-3.434h-3.622v3.434h-.711Z" transform="translate(-380.542 -149.125)"/>
    <path id="Path_7790" data-name="Path 7790" d="M712.771,342.716V335.6h.155l4.735,5.453V335.6h.7v7.115h-.16l-4.7-5.387v5.387Z" transform="translate(-399.533 -149.125)"/>
    <path id="Path_7791" data-name="Path 7791" d="M743.781,334.972a3.691,3.691,0,0,1,2.706,1.079,3.74,3.74,0,0,1-2.647,6.393,3.64,3.64,0,0,1-2.672-1.083,3.564,3.564,0,0,1-1.089-2.621,3.8,3.8,0,0,1,.5-1.9,3.664,3.664,0,0,1,3.206-1.867m.031.692a2.932,2.932,0,0,0-1.5.411,2.966,2.966,0,0,0-1.1,1.108,3.078,3.078,0,0,0-.4,1.554,2.992,2.992,0,0,0,3,3.016,3.046,3.046,0,0,0,1.534-.4,2.881,2.881,0,0,0,1.1-1.1,3.1,3.1,0,0,0,.394-1.549,3.025,3.025,0,0,0-.394-1.532,2.962,2.962,0,0,0-1.112-1.1,3.011,3.011,0,0,0-1.521-.411" transform="translate(-419.094 -148.674)"/>
    <path id="Path_7792" data-name="Path 7792" d="M774.143,335.6h.711v6.428h2.738v.687h-3.449Z" transform="translate(-443.501 -149.125)"/>
    <path id="Path_7793" data-name="Path 7793" d="M795.477,334.972a3.689,3.689,0,0,1,2.705,1.079,3.74,3.74,0,0,1-2.647,6.393,3.64,3.64,0,0,1-2.672-1.083,3.565,3.565,0,0,1-1.089-2.621,3.794,3.794,0,0,1,.5-1.9,3.665,3.665,0,0,1,3.207-1.867m.031.692a3.034,3.034,0,0,0-2.6,1.519,3.076,3.076,0,0,0-.4,1.554,2.993,2.993,0,0,0,3,3.016,3.047,3.047,0,0,0,1.534-.4,2.88,2.88,0,0,0,1.1-1.1,3.092,3.092,0,0,0,.395-1.549,3.017,3.017,0,0,0-.395-1.532,2.956,2.956,0,0,0-1.112-1.1,3.01,3.01,0,0,0-1.521-.411" transform="translate(-456.129 -148.674)"/>
    <path id="Path_7794" data-name="Path 7794" d="M831.944,336.345l-.551.523a4.2,4.2,0,0,0-1.3-.888,3.507,3.507,0,0,0-1.381-.3,3.29,3.29,0,0,0-1.593.411,2.981,2.981,0,0,0-1.173,1.115,2.868,2.868,0,0,0-.416,1.487,2.931,2.931,0,0,0,.431,1.526,3.048,3.048,0,0,0,1.19,1.137,3.42,3.42,0,0,0,1.663.413,2.846,2.846,0,0,0,1.858-.619,2.44,2.44,0,0,0,.9-1.606H829.3v-.687h3.068a3.578,3.578,0,0,1-.98,2.619,3.508,3.508,0,0,1-2.6.97,3.9,3.9,0,0,1-3.125-1.344,3.577,3.577,0,0,1-.885-2.394,3.673,3.673,0,0,1,.508-1.882,3.617,3.617,0,0,1,1.394-1.361,4.058,4.058,0,0,1,2-.491,4.458,4.458,0,0,1,1.7.326,5.085,5.085,0,0,1,1.558,1.047" transform="translate(-479.769 -148.674)"/>
    <rect id="Rectangle_41" data-name="Rectangle 41" width="0.711" height="7.115" transform="translate(354.592 186.477)"/>
    <path id="Path_7795" data-name="Path 7795" d="M869.423,335.6H873.5v.7h-3.366v2.23h3.337v.7h-3.337v2.8h3.337v.7h-4.048Z" transform="translate(-511.742 -149.125)"/>
    <path id="Path_7796" data-name="Path 7796" d="M888.147,340.94l.6-.362q.638,1.174,1.475,1.175a1.41,1.41,0,0,0,.673-.167,1.172,1.172,0,0,0,.478-.447,1.155,1.155,0,0,0,.165-.595,1.2,1.2,0,0,0-.242-.7,5.781,5.781,0,0,0-1.218-1.141,6.254,6.254,0,0,1-1.108-.972,1.778,1.778,0,0,1-.377-1.088,1.65,1.65,0,0,1,.223-.846,1.584,1.584,0,0,1,.626-.6,1.805,1.805,0,0,1,.878-.22,1.87,1.87,0,0,1,.941.249,3.237,3.237,0,0,1,.926.916l-.581.441a2.786,2.786,0,0,0-.684-.7,1.177,1.177,0,0,0-.616-.169.974.974,0,0,0-.7.261.855.855,0,0,0-.274.643,1.091,1.091,0,0,0,.1.45,1.672,1.672,0,0,0,.353.474q.14.135.919.711a5.175,5.175,0,0,1,1.267,1.213,1.953,1.953,0,0,1,.343,1.069,1.814,1.814,0,0,1-.588,1.345,1.975,1.975,0,0,1-1.429.57,2.094,2.094,0,0,1-1.175-.346,3.17,3.17,0,0,1-.972-1.158" transform="translate(-525.153 -148.674)"/>
  </g>
</svg>
